<svg xmlns="http://www.w3.org/2000/svg" viewBox="0 0 181.525 25"><defs><style>.cls-1{fill:#1e345f}</style></defs><g id="Group_537" data-name="Group 537" transform="translate(-40 -33)"><g id="Group_45" data-name="Group 45" transform="translate(40 42.853)"><path id="Path_67" data-name="Path 67" class="cls-1" d="M0 12.5h7.818v2.687a.748.748 0 0 0-.489.326 1.157 1.157 0 0 0-.163.487 1.033 1.033 0 0 0 .081.489 1.09 1.09 0 0 1 .081.407l1.222 5.62L9.691 16.9a1.09 1.09 0 0 1 .081-.407A1.433 1.433 0 0 0 9.853 16v-.326a.845.845 0 0 0-.651-.489V12.5h6.922v2.687a1.526 1.526 0 0 0-.489.57 6.79 6.79 0 0 0-.326.977l-2.768 10.343H3.827L1.14 17.3a3.479 3.479 0 0 0-1.059-2.113V12.5z" transform="translate(0 -12.174)"/><path id="Path_68" data-name="Path 68" class="cls-1" d="M21.2 12.5h7.818v2.524a1.545 1.545 0 0 0-.651.57 2.51 2.51 0 0 0-.081.814v6.433a3.19 3.19 0 0 0 .163 1.059 3.676 3.676 0 0 0 .57.57V27H21.2v-2.529a1.9 1.9 0 0 0 .57-.57 1.534 1.534 0 0 0 .163-.651V16a1.207 1.207 0 0 0-.081-.57.806.806 0 0 0-.57-.407V12.5z" transform="translate(-3.936 -12.174)"/><path id="Path_69" data-name="Path 69" class="cls-1" d="M41.55 17.737V16.19a.741.741 0 0 0-.326-.651 1.313 1.313 0 0 0-.733-.244 1.376 1.376 0 0 0-.814.244.944.944 0 0 0-.326.814v6.678a1 1 0 0 0 .326.733 1.045 1.045 0 0 0 .814.326 1.137 1.137 0 0 0 .733-.244.794.794 0 0 0 .326-.733v-2.28h6.27v4.642a4.647 4.647 0 0 1-2.769 1.14 26.612 26.612 0 0 1-4.642.407 11.565 11.565 0 0 1-5.293-.977A3.425 3.425 0 0 1 33 22.7v-6.021a3.9 3.9 0 0 1 1.629-3.42 9.646 9.646 0 0 1 5.13-1.059 22.178 22.178 0 0 1 4.316.326 15.837 15.837 0 0 1 3.664 1.14v4.072z" transform="translate(-6.127 -12.119)"/><path id="Path_70" data-name="Path 70" class="cls-1" d="M53.7 22.523V16.5a3.7 3.7 0 0 1 1.873-3.339c1.221-.733 3.176-1.059 5.863-1.059 2.606 0 4.479.326 5.619 1.059a3.507 3.507 0 0 1 1.71 3.257v6.6a3.4 3.4 0 0 1-1.629 3.176c-1.14.733-3.094 1.059-5.7 1.059a11.783 11.783 0 0 1-5.863-1.14 3.927 3.927 0 0 1-1.873-3.59m8.713.163v-6.84q-.122-.489-.977-.489c-.9 0-1.3.407-1.3 1.14V22.6c0 .57.081.977.326 1.14a1.737 1.737 0 0 0 .977.244c.651.081.977-.407.977-1.3" transform="translate(-9.97 -12.1)"/><path id="Path_71" data-name="Path 71" class="cls-1" d="M76.181 21.828h6.189v.9c0 .9.407 1.3 1.14 1.3h.407a1.1 1.1 0 0 0 .733-.407 3.037 3.037 0 0 0 .163-.977c0-.57-.733-1.059-2.2-1.384l-3.42-.733a4.878 4.878 0 0 1-2.606-1.71 4.643 4.643 0 0 1-.489-2.362 3.51 3.51 0 0 1 1.71-3.094 9.327 9.327 0 0 1 5.051-1.061h.489a20.694 20.694 0 0 1 3.99.407c.977.244 1.954.57 3.094.977v3.5h-5.863v-.814a.794.794 0 0 0-.326-.733 1.313 1.313 0 0 0-.733-.244 1.626 1.626 0 0 0-.733.163c-.244.081-.326.244-.407.489v.244c0 .57.57.977 1.629 1.3.081 0 .9.163 2.524.407a6.4 6.4 0 0 1 3.664 1.629 3.44 3.44 0 0 1 1.059 2.606 4.087 4.087 0 0 1-.163.977 8.354 8.354 0 0 1-.326 1.14 4.609 4.609 0 0 1-3.175 2.452 16.632 16.632 0 0 1-4.479.489 21.837 21.837 0 0 1-3.664-.407 6.578 6.578 0 0 1-3.339-1.3v-3.754z" transform="translate(-14.129 -12.137)"/><path id="Path_72" data-name="Path 72" class="cls-1" d="M96.581 12.5h17.1v6.515h-4.56V16.49a1.177 1.177 0 0 0-.163-.57 3.786 3.786 0 0 0-.733-.244v7.248a3.037 3.037 0 0 0 .163.977.861.861 0 0 0 .57.489V27h-7.736v-2.529a1.039 1.039 0 0 0 .57-.407 1.945 1.945 0 0 0 .163-.733v-7.737q-.611 0-.733.244a1.534 1.534 0 0 0-.163.651v2.443H96.5V12.5z" transform="translate(-17.917 -12.174)"/><path id="Path_73" data-name="Path 73" class="cls-1" d="M120.1 22.523V16.5a3.7 3.7 0 0 1 1.873-3.339c1.222-.733 3.176-1.059 5.863-1.059 2.606 0 4.479.326 5.619 1.059a3.507 3.507 0 0 1 1.71 3.257v6.6a3.562 3.562 0 0 1-1.629 3.176c-1.14.733-3.094 1.059-5.7 1.059a11.783 11.783 0 0 1-5.863-1.14 3.927 3.927 0 0 1-1.873-3.583m8.713.163v-6.84q-.122-.489-.977-.489c-.814 0-1.3.407-1.3 1.14V22.6c0 .57.081.977.326 1.14a1.736 1.736 0 0 0 .977.244c.651.081.977-.407.977-1.3" transform="translate(-22.299 -12.1)"/><path id="Path_74" data-name="Path 74" class="cls-1" d="M141.381 12.5h6.759l3.42 6.515V16a1.177 1.177 0 0 0-.163-.57c-.081-.163-.244-.244-.326-.326v-2.523h6.352v2.524a1.509 1.509 0 0 0-.651.57 2.533 2.533 0 0 0-.081.9v10.583h-6.026l-3.827-6.515v2.28a3.357 3.357 0 0 0 .081.977.974.974 0 0 0 .57.57v2.769H141.3v-2.605a.861.861 0 0 0 .57-.489 1.534 1.534 0 0 0 .163-.651v-7.167a1.177 1.177 0 0 0-.163-.57 1.766 1.766 0 0 0-.57-.489V12.5z" transform="translate(-26.235 -12.174)"/><path id="Path_75" data-name="Path 75" class="cls-1" d="M163.763 12.5h14.984v5.049h-5.863v-.977c0-.326-.163-.489-.489-.651a2.719 2.719 0 0 0-1.221-.244h-.57v2.606h4.072v2.85H170.6v2.85h.489a2.066 2.066 0 0 0 1.3-.326 1.131 1.131 0 0 0 .407-.814v-.977h5.863v5.212h-14.978v-2.607c.244-.081.407-.163.407-.326.081-.081.081-.244.081-.489v-7.329a1.286 1.286 0 0 0-.57-1.222V12.5z" transform="translate(-30.375 -12.174)"/></g><g id="Group_46" data-name="Group 46" transform="translate(196.596 33)"><path id="Path_76" data-name="Path 76" class="cls-1" d="M210.4 20.242a8.219 8.219 0 0 1-1.222.57h-.078c.407 0 .733.081 1.14.081a12.382 12.382 0 0 0 9.609-4.56l.163-.163a10.96 10.96 0 0 0 .326-3.094 15.861 15.861 0 0 0-.163-2.036.3.3 0 0 0-.081-.244.3.3 0 0 0-.081-.244 12.065 12.065 0 0 0-3.584-6.352 13.743 13.743 0 0 1 .814 4.56 12.725 12.725 0 0 1-6.843 11.482z" transform="translate(-195.419 -.78)"/><path id="Path_77" data-name="Path 77" class="cls-1" d="M216.486 17.618a12.2 12.2 0 0 1-21.58-7.818 12.283 12.283 0 0 1 1.384-5.7 12.482 12.482 0 0 0-3.99 9.121 12.3 12.3 0 0 0 4.072 9.2 12.254 12.254 0 0 0 8.388 3.257h1.221a12.722 12.722 0 0 0 10.505-8.06z" transform="translate(-192.3 -.761)"/><path id="Path_78" data-name="Path 78" d="M205.769 1.954a10.451 10.451 0 0 1 8.469 4.235 8.889 8.889 0 0 0-16.938 0 10.338 10.338 0 0 1 8.469-4.235z" transform="translate(-193.228)" fill="#f16b24"/></g></g></svg>